<mxfile host="app.diagrams.net" modified="2023-07-12T08:27:57.166Z" agent="Mozilla/5.0 (Windows NT 10.0; Win64; x64) AppleWebKit/537.36 (KHTML, like Gecko) Chrome/114.0.0.0 Safari/537.36" etag="gwrYprs6hU10HSvOgIPQ" version="21.6.1" type="github">
  <diagram name="第 1 页" id="jQtaLLwelIqqUSmx7d5y">
    <mxGraphModel dx="880" dy="490" grid="1" gridSize="10" guides="1" tooltips="1" connect="1" arrows="1" fold="1" page="1" pageScale="1" pageWidth="827" pageHeight="1169" math="0" shadow="0">
      <root>
        <mxCell id="0" />
        <mxCell id="1" parent="0" />
        <mxCell id="xZqxaCPunkiraAg-Okc5-11" style="edgeStyle=none;shape=connector;rounded=0;orthogonalLoop=1;jettySize=auto;html=1;exitX=1;exitY=0.5;exitDx=0;exitDy=0;entryX=0;entryY=0.5;entryDx=0;entryDy=0;labelBackgroundColor=default;strokeColor=default;fontFamily=Helvetica;fontSize=11;fontColor=default;startArrow=none;startFill=0;endArrow=none;endFill=0;dashed=1;" edge="1" parent="1" source="xZqxaCPunkiraAg-Okc5-1" target="xZqxaCPunkiraAg-Okc5-2">
          <mxGeometry relative="1" as="geometry" />
        </mxCell>
        <mxCell id="xZqxaCPunkiraAg-Okc5-1" value="I2" style="ellipse;whiteSpace=wrap;html=1;aspect=fixed;" vertex="1" parent="1">
          <mxGeometry x="300" y="200" width="40" height="40" as="geometry" />
        </mxCell>
        <mxCell id="xZqxaCPunkiraAg-Okc5-12" style="edgeStyle=none;shape=connector;rounded=0;orthogonalLoop=1;jettySize=auto;html=1;exitX=1;exitY=0.5;exitDx=0;exitDy=0;entryX=0;entryY=0.5;entryDx=0;entryDy=0;labelBackgroundColor=default;strokeColor=default;fontFamily=Helvetica;fontSize=11;fontColor=default;startArrow=none;startFill=0;endArrow=none;endFill=0;" edge="1" parent="1" source="xZqxaCPunkiraAg-Okc5-2" target="xZqxaCPunkiraAg-Okc5-3">
          <mxGeometry relative="1" as="geometry" />
        </mxCell>
        <mxCell id="xZqxaCPunkiraAg-Okc5-2" value="I1" style="ellipse;whiteSpace=wrap;html=1;aspect=fixed;" vertex="1" parent="1">
          <mxGeometry x="374" y="200" width="40" height="40" as="geometry" />
        </mxCell>
        <mxCell id="xZqxaCPunkiraAg-Okc5-13" style="edgeStyle=none;shape=connector;rounded=0;orthogonalLoop=1;jettySize=auto;html=1;exitX=1;exitY=0.5;exitDx=0;exitDy=0;entryX=0;entryY=0.5;entryDx=0;entryDy=0;labelBackgroundColor=default;strokeColor=default;fontFamily=Helvetica;fontSize=11;fontColor=default;startArrow=none;startFill=0;endArrow=none;endFill=0;" edge="1" parent="1" source="xZqxaCPunkiraAg-Okc5-3" target="xZqxaCPunkiraAg-Okc5-4">
          <mxGeometry relative="1" as="geometry" />
        </mxCell>
        <mxCell id="xZqxaCPunkiraAg-Okc5-3" value="I3" style="ellipse;whiteSpace=wrap;html=1;aspect=fixed;" vertex="1" parent="1">
          <mxGeometry x="450" y="200" width="40" height="40" as="geometry" />
        </mxCell>
        <mxCell id="xZqxaCPunkiraAg-Okc5-4" value="I4" style="ellipse;whiteSpace=wrap;html=1;aspect=fixed;" vertex="1" parent="1">
          <mxGeometry x="530" y="200" width="40" height="40" as="geometry" />
        </mxCell>
        <mxCell id="xZqxaCPunkiraAg-Okc5-7" style="rounded=0;orthogonalLoop=1;jettySize=auto;html=1;exitX=0.5;exitY=1;exitDx=0;exitDy=0;entryX=0.5;entryY=0;entryDx=0;entryDy=0;strokeColor=default;endArrow=none;endFill=0;" edge="1" parent="1" source="xZqxaCPunkiraAg-Okc5-5" target="xZqxaCPunkiraAg-Okc5-2">
          <mxGeometry relative="1" as="geometry" />
        </mxCell>
        <mxCell id="xZqxaCPunkiraAg-Okc5-8" style="rounded=0;orthogonalLoop=1;jettySize=auto;html=1;exitX=0.5;exitY=1;exitDx=0;exitDy=0;entryX=0.5;entryY=0;entryDx=0;entryDy=0;startArrow=none;startFill=0;endArrow=none;endFill=0;" edge="1" parent="1" source="xZqxaCPunkiraAg-Okc5-5" target="xZqxaCPunkiraAg-Okc5-3">
          <mxGeometry relative="1" as="geometry" />
        </mxCell>
        <mxCell id="xZqxaCPunkiraAg-Okc5-9" style="rounded=0;orthogonalLoop=1;jettySize=auto;html=1;exitX=0.5;exitY=1;exitDx=0;exitDy=0;entryX=0.5;entryY=0;entryDx=0;entryDy=0;startArrow=none;startFill=0;endArrow=none;endFill=0;" edge="1" parent="1" source="xZqxaCPunkiraAg-Okc5-5" target="xZqxaCPunkiraAg-Okc5-4">
          <mxGeometry relative="1" as="geometry" />
        </mxCell>
        <mxCell id="xZqxaCPunkiraAg-Okc5-10" style="edgeStyle=none;shape=connector;rounded=0;orthogonalLoop=1;jettySize=auto;html=1;entryX=0.5;entryY=0;entryDx=0;entryDy=0;labelBackgroundColor=default;strokeColor=default;fontFamily=Helvetica;fontSize=11;fontColor=default;startArrow=none;startFill=0;endArrow=none;endFill=0;dashed=1;exitX=0.5;exitY=1;exitDx=0;exitDy=0;" edge="1" parent="1" source="xZqxaCPunkiraAg-Okc5-5" target="xZqxaCPunkiraAg-Okc5-1">
          <mxGeometry relative="1" as="geometry" />
        </mxCell>
        <mxCell id="xZqxaCPunkiraAg-Okc5-5" value="Slot" style="ellipse;whiteSpace=wrap;html=1;aspect=fixed;" vertex="1" parent="1">
          <mxGeometry x="410" y="90" width="40" height="40" as="geometry" />
        </mxCell>
      </root>
    </mxGraphModel>
  </diagram>
</mxfile>
